<?xml version="1.0" encoding="UTF-8"?>
<svg id="_图层_1" data-name="图层 1" xmlns="http://www.w3.org/2000/svg" viewBox="0 0 1254 1254">
  <defs>
    <style>
      .cls-1 {
        fill: #fff;
      }

      .cls-2 {
        fill: #0153e5;
      }
    </style>
  </defs>
  <rect class="cls-1" x="6.03" y="6.03" width="1241.94" height="1241.94" rx="212.47" ry="212.47"/>
  <g>
    <path class="cls-2" d="M365.68,979.74l-25.49-38.96c-6.04-.37-11.31-.37-17.43.02l-.32,38.89-25.45-.07.17-116.94,41.97-.09c8.63-.02,17.06-.36,25.04,2.45,16,4.84,25.56,18.48,25.9,34.98s-8.99,30.24-24.61,36.54l29.2,42.77-28.97.42ZM349.06,918.57c10.12-1.14,15.92-8.96,15.42-18.1-.45-8.24-7.17-15.04-16.43-15.27-8.58-.22-16.84-.16-25.42.11l.2,33.63c9-.35,17.44.61,26.23-.38Z"/>
    <path class="cls-2" d="M575.08,979.32c-7.43,1.03-14.99.28-22.9.38l-.74-9.77c-7.73,8.95-17.92,13.2-29.47,11.93-14.76-1.61-26.67-11.64-31.95-25.58-4.4-11.6-4.2-24.54.48-36.11,5.71-14.09,18.45-24.15,33.47-25.24,11.06-.8,20.62,2.91,27.6,11.13l.68-9.23,22.6-.13.22,82.61ZM552.67,938.39c0-11.9-9.65-21.55-21.55-21.55s-21.55,9.65-21.55,21.55,9.65,21.55,21.55,21.55,21.55-9.65,21.55-21.55Z"/>
    <path class="cls-2" d="M458.55,951.89c6.66,3,12.37,7.13,18.78,10.99-8.73,13.37-23.6,19.69-39.12,19.17-25.4-.85-43.92-21.32-42.46-46.43,1.26-21.79,17.21-38.77,39.14-40.79,15.8-1.45,31.24,4.92,39.65,18.61,5.72,9.31,6.94,20.05,5.86,30.58l-60.66.08c.84,8.87,8.11,15.02,15.57,16.66,8.84,1.95,17.43-.49,23.24-8.87ZM458.14,928.74c-2.47-9.92-10.62-14.65-19.52-14.49-8.25.15-16.52,5.45-18.32,14.48h37.83Z"/>
    <path class="cls-2" d="M750.19,938.44c0,24.46-19.83,44.3-44.3,44.3s-44.3-19.83-44.3-44.3,19.83-44.3,44.3-44.3,44.3,19.83,44.3,44.3ZM727.57,938.41c0-12-9.72-21.72-21.72-21.72s-21.72,9.72-21.72,21.72,9.72,21.72,21.72,21.72,21.72-9.72,21.72-21.72Z"/>
    <path class="cls-2" d="M801.56,916.44c-9.85-.29-18.14,6.26-18.21,15.86l-.36,47.37-23.37-.11.03-82.78,22.91.21c.25,3.4-.62,5.99.87,9.46,11.74-15.92,38.04-15.05,49.82-.69,5.53,6.74,8.09,15.39,8.08,24.25l-.04,49.62-23.39.09-.42-47.61c-.08-8.96-6.5-15.4-15.94-15.67Z"/>
    <path class="cls-2" d="M973.16,979.4l-26.93.31-17.96-25.12-18.33,25.11-26-.32,30.46-42.06-28.9-40.27c9.78-1.08,18.2-.09,27.28-.01l15.65,23.31,16.3-23.6c8.92-.23,17.29-.37,26.73.41l-28.8,40.03,30.5,42.21Z"/>
    <path class="cls-2" d="M638.97,978.82c-18.03,6.92-47.26,4.18-56.68-16.59l17.95-8.65c2.7,1.18,3.3,4.09,5.67,5.7,9.87,6.71,26.42,5.86,26.64-2.77.07-2.84-2.08-5.34-5.15-6.18l-21.93-5.98c-7.07-1.93-13.56-5.89-16.89-12.73-6.16-12.65.07-27.35,12.99-33.01,17.43-7.64,46.57-4.97,53.87,15.09l-17.45,7.58c-6.29-7.68-16.61-10.11-25.61-6.26-2.11.9-3.33,3.62-3.17,5.29.21,2.22,2.03,4.63,4.56,5.32l24.3,6.66c5.87,1.61,11.42,4.7,14.59,10.07,8.12,13.79,1.39,30.66-13.68,36.45Z"/>
    <rect class="cls-2" x="823.88" y="926.58" width="83.07" height="23.31" transform="translate(-73.46 1802.96) rotate(-89.96)"/>
    <circle class="cls-2" cx="865.58" cy="871.74" r="14.34"/>
  </g>
  <g>
    <path class="cls-2" d="M657.07,556.02c4.59,3.86,10.93,5.3,17.45,2.32,2.59-1.18,4.3-4.19,3.22-7.14-8.6-23.51-32.86-40.71-42.55-27.41-1.18,1.63-1.14,3.74-.24,5.03.71,1.02,2.14,1.26,3.99.88,5.89-1.22,13.21,2.87,12.52,9.44-.72,6.85.66,12.72,5.61,16.89Z"/>
    <path class="cls-2" d="M798.75,598.8c22.21-24.86,36.14-54.9,40.99-87.98,11.07-72.3-24.83-138.35-92.45-166.33-23.77-9.56-48.19-13.62-74.13-13.37l-251.41.07.02,481.78,123.58-.1v-169.44c-4.09-1.52-6.91-2.78-6.91-2.78-26.86-12.28-47.42-33.58-58.71-60.25-14.41-34.05-9.96-72.23,12.69-101.26,22.56-28.2,53.39-37.16,88.72-32.2,13.05,1.83,27-13.49,53.57-10.57,1.79.2,3.58,1.54,3.76,2.6.62,3.63-9.65,5.57-9.66,15.48,0,4.17,1.87,9,5.81,11.76,13.54,9.5,25.27,20.18,37.54,31.22,5.96,5.36,26.19,20.45,31.34,8.16,3-7.17,4.99-14.67,6.98-22.28.98-3.77-1.1-6.02-4.14-7.82-20.87-12.35-28.73-38.11-20.57-60.92.79-2.2,2.82-3.27,4.56-3.34,7.01-.3,3.28,12.7,20.59,18.03,16.44,5.06,16.94,18.73,24.93,13.29,18.63-12.7,25.34-2.3,42.61-18.58,1.78-1.67,4.83-1.79,6.68-.51,1.14.79,2.12,2.84,2.03,5.22-.51,13.75-5.87,26.88-15.26,36.97-17.76,19.08-32.69,9.95-33.65,23.31-2.83,39.22-15.66,78.37-43.49,106.85-.89.91-1.43,2.22-1.28,3.1.16.92,1.26,1.82,2.46,2.23l23.45,7.97c3.32,1.13,5.72,4.1,5.3,7.27-.37,2.76-2.57,5.2-5.74,6.25-17.21,5.7-35.7,4.7-53.23-.6-23.19,19.53-51.68,29.59-82.74,28.38l45.08,62.23,73.54,100.4,146.79-.2-124.45-168.04c28.97-8.55,54.42-23.87,74.8-45.98Z"/>
    <circle class="cls-2" cx="640.36" cy="538.21" r="3.47"/>
    <path class="cls-2" d="M504.6,517.71c-7.75.94-12.41,6.5-11.66,14.8,5.25,57.86,58.62,105.22,118.44,93.8,12.73-2.43,24.33-7.49,33.74-16.99-20.35-17.53-30.27-35.39-47.01-52.99-23.95-25.18-58.04-42.91-93.5-38.62Z"/>
  </g>
</svg>