<?xml version="1.0" encoding="UTF-8"?>
<svg xmlns="http://www.w3.org/2000/svg" viewBox="0 0 520 100" role="img" aria-label="西谷智灯暗涌系统">
  <defs>
    <linearGradient id="g" x1="0%" y1="0%" x2="100%" y2="0%">
      <stop offset="0%" stop-color="#0c2d48"/>
      <stop offset="40%" stop-color="#1b6ca8"/>
      <stop offset="100%" stop-color="#5bc0eb"/>
    </linearGradient>
    <linearGradient id="gm" x1="0%" y1="0%" x2="100%" y2="100%">
      <stop offset="0%" stop-color="#0c2d48"/>
      <stop offset="100%" stop-color="#5bc0eb"/>
    </linearGradient>
    <filter id="glow" x="-50%" y="-50%" width="200%" height="200%">
      <feGaussianBlur stdDeviation="1" result="blur"/>
      <feMerge><feMergeNode in="blur"/><feMergeNode in="SourceGraphic"/></feMerge>
    </filter>
  </defs>
  <g transform="translate(45, 50)" filter="url(#glow)">
    <path d="M -22,0 C -22,-14 -8,-22 0,-22 C 8,-22 22,-14 22,0 C 22,14 8,22 0,22 C -8,22 -22,14 -22,0 Z" fill="none" stroke="url(#gm)" stroke-width="2" opacity="0.6"/>
    <path d="M -12,0 C -12,-8 -5,-12 0,-12 C 5,-12 12,-8 12,0 C 12,8 5,12 0,12 C -5,12 -12,8 -12,0 Z" fill="url(#gm)" opacity="0.85"/>
    <path d="M -18,5 Q -10,-2 0,5 Q 10,12 18,5" fill="none" stroke="#5bc0eb" stroke-width="1" stroke-linecap="round" opacity="0.4"/>
  </g>
  <text x="85" y="42" font-family="'PingFang SC','Noto Sans SC','Microsoft YaHei',sans-serif" font-size="36" font-weight="800" fill="url(#g)" letter-spacing="6">西谷智灯暗涌系统</text>
  <text x="85" y="65" font-family="ui-monospace,SFMono-Regular,Menlo,monospace" font-size="12" font-weight="600" fill="#2d8cc4" letter-spacing="5">ANYONG</text>
</svg>
